<?xml version="1.0" encoding="UTF-8" standalone="no"?>
<!DOCTYPE svg PUBLIC "-//W3C//DTD SVG 1.1//EN"
 "http://www.w3.org/Graphics/SVG/1.1/DTD/svg11.dtd">
<!-- Generated by graphviz version 12.2.0 (20241103.1931)
 -->
<!-- Pages: 1 -->
<svg width="376pt" height="116pt"
 viewBox="0.00 0.00 375.86 116.00" xmlns="http://www.w3.org/2000/svg" xmlns:xlink="http://www.w3.org/1999/xlink">
<g id="graph0" class="graph" transform="scale(1 1) rotate(0) translate(4 112)">
<polygon fill="white" stroke="none" points="-4,4 -4,-112 371.86,-112 371.86,4 -4,4"/>
<!-- we -->
<g id="node1" class="node">
<title>we</title>
<ellipse fill="none" stroke="black" cx="48.79" cy="-18" rx="27" ry="18"/>
<text text-anchor="middle" x="48.79" y="-12.95" font-family="Times New Roman,serif" font-size="14.00">we</text>
</g>
<!-- qweko -->
<g id="node2" class="node">
<title>qweko</title>
<ellipse fill="none" stroke="black" cx="150.79" cy="-90" rx="35.49" ry="18"/>
<text text-anchor="middle" x="150.79" y="-84.95" font-family="Times New Roman,serif" font-size="14.00">qweko</text>
</g>
<!-- foqwe -->
<g id="node3" class="node">
<title>foqwe</title>
<ellipse fill="none" stroke="black" cx="237.79" cy="-90" rx="33.95" ry="18"/>
<text text-anchor="middle" x="237.79" y="-84.95" font-family="Times New Roman,serif" font-size="14.00">foqwe</text>
</g>
<!-- qfwokp -->
<g id="node4" class="node">
<title>qfwokp</title>
<ellipse fill="none" stroke="black" cx="328.79" cy="-90" rx="39.07" ry="18"/>
<text text-anchor="middle" x="328.79" y="-84.95" font-family="Times New Roman,serif" font-size="14.00">qfwokp</text>
</g>
<!-- www.feed -->
<g id="node5" class="node">
<title>www.feed</title>
<ellipse fill="none" stroke="black" cx="48.79" cy="-90" rx="48.79" ry="18"/>
<text text-anchor="middle" x="48.79" y="-84.95" font-family="Times New Roman,serif" font-size="14.00">www.feed</text>
</g>
<!-- www.feed&#45;&gt;we -->
<g id="edge1" class="edge">
<title>www.feed&#45;&gt;we</title>
<path fill="none" stroke="black" d="M48.79,-71.7C48.79,-64.41 48.79,-55.73 48.79,-47.54"/>
<polygon fill="black" stroke="black" points="52.29,-47.62 48.79,-37.62 45.29,-47.62 52.29,-47.62"/>
</g>
</g>
</svg>
