<?xml version="1.0" encoding="UTF-8" standalone="no"?>
<!DOCTYPE svg PUBLIC "-//W3C//DTD SVG 1.1//EN"
 "http://www.w3.org/Graphics/SVG/1.1/DTD/svg11.dtd">
<!-- Generated by graphviz version 12.2.0 (20241103.1931)
 -->
<!-- Pages: 1 -->
<svg width="694pt" height="332pt"
 viewBox="0.00 0.00 694.13 332.00" xmlns="http://www.w3.org/2000/svg" xmlns:xlink="http://www.w3.org/1999/xlink">
<g id="graph0" class="graph" transform="scale(1 1) rotate(0) translate(4 328)">
<polygon fill="white" stroke="none" points="-4,4 -4,-328 690.13,-328 690.13,4 -4,4"/>
<!-- https://centraluniversity.ru/contacts -->
<g id="node1" class="node">
<title>https://centraluniversity.ru/contacts</title>
<ellipse fill="none" stroke="black" cx="207.45" cy="-234" rx="140.92" ry="18"/>
<text text-anchor="middle" x="207.45" y="-228.95" font-family="Times New Roman,serif" font-size="14.00">https://centraluniversity.ru/contacts</text>
</g>
<!-- https://apply.centraluniversity.ru/visuallyimpaired&#45;ba -->
<g id="node2" class="node">
<title>https://apply.centraluniversity.ru/visuallyimpaired&#45;ba</title>
<ellipse fill="none" stroke="black" cx="207.45" cy="-162" rx="207.45" ry="18"/>
<text text-anchor="middle" x="207.45" y="-156.95" font-family="Times New Roman,serif" font-size="14.00">https://apply.centraluniversity.ru/visuallyimpaired&#45;ba</text>
</g>
<!-- https://centraluniversity.ru/contacts&#45;&gt;https://apply.centraluniversity.ru/visuallyimpaired&#45;ba -->
<g id="edge1" class="edge">
<title>https://centraluniversity.ru/contacts&#45;&gt;https://apply.centraluniversity.ru/visuallyimpaired&#45;ba</title>
<path fill="none" stroke="black" d="M207.45,-215.7C207.45,-208.41 207.45,-199.73 207.45,-191.54"/>
<polygon fill="black" stroke="black" points="210.95,-191.62 207.45,-181.62 203.95,-191.62 210.95,-191.62"/>
</g>
<!-- https://apply.centraluniversity.ru/visuallyimpaired&#45;master -->
<g id="node3" class="node">
<title>https://apply.centraluniversity.ru/visuallyimpaired&#45;master</title>
<ellipse fill="none" stroke="black" cx="411.45" cy="-90" rx="223.83" ry="18"/>
<text text-anchor="middle" x="411.45" y="-84.95" font-family="Times New Roman,serif" font-size="14.00">https://apply.centraluniversity.ru/visuallyimpaired&#45;master</text>
</g>
<!-- https://apply.centraluniversity.ru/visuallyimpaired&#45;ba&#45;&gt;https://apply.centraluniversity.ru/visuallyimpaired&#45;master -->
<g id="edge2" class="edge">
<title>https://apply.centraluniversity.ru/visuallyimpaired&#45;ba&#45;&gt;https://apply.centraluniversity.ru/visuallyimpaired&#45;master</title>
<path fill="none" stroke="black" d="M251.21,-143.97C278.77,-134.16 314.78,-121.76 345.72,-111.43"/>
<polygon fill="black" stroke="black" points="346.6,-114.82 354.99,-108.35 344.39,-108.18 346.6,-114.82"/>
</g>
<!-- https://google.com -->
<g id="node4" class="node">
<title>https://google.com</title>
<ellipse fill="none" stroke="black" cx="196.45" cy="-18" rx="80.52" ry="18"/>
<text text-anchor="middle" x="196.45" y="-12.95" font-family="Times New Roman,serif" font-size="14.00">https://google.com</text>
</g>
<!-- https://apply.centraluniversity.ru/visuallyimpaired&#45;ba&#45;&gt;https://google.com -->
<g id="edge3" class="edge">
<title>https://apply.centraluniversity.ru/visuallyimpaired&#45;ba&#45;&gt;https://google.com</title>
<path fill="none" stroke="black" d="M195.15,-143.78C188.8,-133.84 181.73,-120.8 178.45,-108 173.26,-87.7 178.31,-64.5 184.37,-46.87"/>
<polygon fill="black" stroke="black" points="187.61,-48.19 187.86,-37.6 181.06,-45.72 187.61,-48.19"/>
</g>
<!-- https://apply.centraluniversity.ru/visuallyimpaired&#45;master&#45;&gt;https://apply.centraluniversity.ru/visuallyimpaired&#45;ba -->
<g id="edge5" class="edge">
<title>https://apply.centraluniversity.ru/visuallyimpaired&#45;master&#45;&gt;https://apply.centraluniversity.ru/visuallyimpaired&#45;ba</title>
<path fill="none" stroke="black" d="M367.47,-108.12C339.85,-117.95 303.8,-130.35 272.88,-140.68"/>
<polygon fill="black" stroke="black" points="272,-137.28 263.61,-143.76 274.2,-143.92 272,-137.28"/>
</g>
<!-- https://apply.centraluniversity.ru/visuallyimpaired&#45;master&#45;&gt;https://google.com -->
<g id="edge4" class="edge">
<title>https://apply.centraluniversity.ru/visuallyimpaired&#45;master&#45;&gt;https://google.com</title>
<path fill="none" stroke="black" d="M359.41,-72.05C326.8,-61.44 284.83,-47.77 251.65,-36.97"/>
<polygon fill="black" stroke="black" points="252.79,-33.66 242.2,-33.89 250.62,-40.32 252.79,-33.66"/>
</g>
<!-- https://apply.centraluniversity.ru/visuallyimpaired -->
<g id="node5" class="node">
<title>https://apply.centraluniversity.ru/visuallyimpaired</title>
<ellipse fill="none" stroke="black" cx="490.45" cy="-18" rx="195.68" ry="18"/>
<text text-anchor="middle" x="490.45" y="-12.95" font-family="Times New Roman,serif" font-size="14.00">https://apply.centraluniversity.ru/visuallyimpaired</text>
</g>
<!-- https://apply.centraluniversity.ru/visuallyimpaired&#45;master&#45;&gt;https://apply.centraluniversity.ru/visuallyimpaired -->
<g id="edge6" class="edge">
<title>https://apply.centraluniversity.ru/visuallyimpaired&#45;master&#45;&gt;https://apply.centraluniversity.ru/visuallyimpaired</title>
<path fill="none" stroke="black" d="M430.98,-71.7C440.48,-63.28 452.06,-53.02 462.47,-43.79"/>
<polygon fill="black" stroke="black" points="464.58,-46.6 469.74,-37.35 459.94,-41.36 464.58,-46.6"/>
</g>
<!-- https://centraluniversity.ru/ -->
<g id="node6" class="node">
<title>https://centraluniversity.ru/</title>
<ellipse fill="none" stroke="black" cx="207.45" cy="-306" rx="110.72" ry="18"/>
<text text-anchor="middle" x="207.45" y="-300.95" font-family="Times New Roman,serif" font-size="14.00">https://centraluniversity.ru/</text>
</g>
<!-- https://centraluniversity.ru/&#45;&gt;https://centraluniversity.ru/contacts -->
<g id="edge7" class="edge">
<title>https://centraluniversity.ru/&#45;&gt;https://centraluniversity.ru/contacts</title>
<path fill="none" stroke="black" d="M207.45,-287.7C207.45,-280.41 207.45,-271.73 207.45,-263.54"/>
<polygon fill="black" stroke="black" points="210.95,-263.62 207.45,-253.62 203.95,-263.62 210.95,-263.62"/>
</g>
</g>
</svg>
